<svg class="css-1j8o68f" width="76.232" height="76.232" xmlns="http://www.w3.org/2000/svg">
 <g transform="matrix(2.1875 0 0 2.1875 0 -2.1263)" fill="white" featurekey="symbolFeature-0">
  <g display="none" xmlns="http://www.w3.org/2000/svg">
   <rect x="-195.32" y="-102.68" width="473.33" height="236" display="inline" fill="white"/>
  </g>
  <g display="none" xmlns="http://www.w3.org/2000/svg">
   <g display="inline">
    <polygon points="0 7.582 11.51 0.972 23.019 7.582 23.019 20.804 11.51 27.415 0 20.804" fill="white"/>
    <polygon points="21.677 31.028 32 13.189 11.355 13.189"/>
   </g>
  </g>
  <g display="none" xmlns="http://www.w3.org/2000/svg">
   <g display="inline" fill="white">
    <polygon points="17.505 22.819 11.51 26.262 1 20.225 1 8.161 11.51 2.125 22.019 8.161 22.019 13.689 23.019 13.689 23.019 7.582 11.51 0.972 0 7.582 0 20.804 11.51 27.415 18.005 23.684"/>
    <path d="m30.266 14.189-8.589 14.843-8.589-14.843h17.178m1.734-1h-20.645l10.323 17.839 10.322-17.839z"/>
   </g>
  </g>
  <g display="none" xmlns="http://www.w3.org/2000/svg">
   <g display="inline">
    <circle cx="16" cy="16" r="16" fill="white"/>
   </g>
   <g display="inline">
    <polygon points="12.615 13.761 30.948 13.761 21.586 29.601" fill="white"/>
   </g>
   <g display="inline">
    <polygon points="0 7.865 11.573 1.552 22.448 7.927 22.448 13.677 12.323 13.802 17.76 23.365 11.385 26.615 0 20.552" fill="white"/>
   </g>
   <g display="inline">
    <polygon points="17.505 22.819 11.51 26.262 1 20.225 1 8.161 11.51 2.125 22.019 8.161 22.019 13.689 23.019 13.689 23.019 7.582 11.51 0.972 0 7.582 0 20.804 11.51 27.415 18.005 23.684"/>
   </g>
   <g display="inline">
    <path d="m30.266 14.189-8.589 14.843-8.589-14.843h17.178m1.734-1h-20.645l10.323 17.839 10.322-17.839z"/>
   </g>
  </g>
  <g xmlns="http://www.w3.org/2000/svg">
   <path d="m17.572 23.933 4.106 7.095 10.322-17.839h-8.981v-5.607l-11.509-6.61-11.51 6.61v13.222l11.51 6.611 6.062-3.482zm10.96-8.744-6.855 11.846-6.855-11.846h13.71z"/>
  </g>
 </g>
 <g transform="matrix(1.4317 0 0 1.4317 90 -4.0651)" fill="white" featurekey="nameFeature-0">
  <path d="m4.6484 40h-4.6484v-27.363h16.992q2.2461 0 3.8281 1.6016 1.582 1.582 1.582 3.8281v16.484q0 2.2461-1.582 3.8477-1.582 1.582-3.8281 1.582h-4.3555v-4.6484h4.3555q0.3125 0 0.54688-0.23438 0.23438-0.21484 0.23438-0.54688v-16.484q0-0.33203-0.23438-0.54688-0.23438-0.23438-0.54688-0.23438h-12.344v22.715zm38.477 0h4.6484v-27.344h-4.6484v27.344zm20.352-13.906q-2.6367 2.6172-8.6523 2.5391h-0.33203v-4.6484h0.37109q4.082 0.058594 5.3516-1.1914 0.66406-0.66406 0.66406-1.9727 0-1.8555-0.87891-2.6953t-2.3633-0.83984h-0.11719-2.8516v-4.6289h2.793q3.3984-0.11719 5.7422 2.0898 2.3242 2.2266 2.3242 6.0742 0 3.2617-2.0508 5.2734zm22.714 13.906h17.93v-4.6484h-17.93v4.6484zm0-10.293h4.6484v-17.051h-4.6484v17.051zm38.711-1.055h12.656v-4.6484h-12.656v4.6484zm0 11.348h21.66v-4.6484h-21.66v4.6484zm0-22.734h21.66v-4.6484h-21.66v4.6484zm64.688-4.629-8.1445 10.02-8.125-10.02h-5.9961l11.133 13.691-11.133 13.672h5.9961l22.246-27.363h-5.9766zm-3.555 23.008 3.5352 4.3555h5.9961l-6.543-8.0469z"/>
 </g>
</svg>
